<svg id="female" enable-background="new 0 0 300 300" height="512" viewBox="0 0 300 300" width="512" xmlns="http://www.w3.org/2000/svg" xmlns:xlink="http://www.w3.org/1999/xlink"><linearGradient id="SVGID_1_" gradientUnits="userSpaceOnUse" x1="41.639" x2="253.67" y1="273.294" y2="61.263"><stop offset="0" stop-color="#107eff"/><stop offset="1" stop-color="#8f16ff"/></linearGradient><g><path d="m237.47 55.999c0-2.502 2.028-4.53 4.53-4.53s4.53 2.028 4.53 4.53-2.028 4.53-4.53 4.53c-2.502-.001-4.53-2.029-4.53-4.53zm-187.47 52.529c2.502 0 4.53-2.028 4.53-4.53s-2.028-4.53-4.53-4.53-4.53 2.028-4.53 4.53 2.028 4.53 4.53 4.53zm187.824 9.646c.781.782 1.804 1.172 2.828 1.172 1.023 0 2.047-.39 2.828-1.172l4.52-4.519 4.52 4.519c.781.782 1.805 1.172 2.828 1.172 1.024 0 2.047-.39 2.828-1.172 1.563-1.562 1.563-4.094 0-5.656l-4.519-4.52 4.519-4.52c1.563-1.562 1.563-4.094 0-5.656-1.562-1.563-4.094-1.563-5.656 0l-4.52 4.519-4.52-4.519c-1.562-1.563-4.094-1.563-5.656 0-1.563 1.562-1.563 4.094 0 5.656l4.519 4.52-4.519 4.52c-1.562 1.563-1.562 4.094 0 5.656zm-85.824 15.825c3.387 0 6.631-1.442 8.902-3.953 1.48-1.638 1.352-4.168-.287-5.65-1.64-1.482-4.168-1.35-5.65.287-1.414 1.568-4.012 1.721-5.607.32-1.66-1.453-4.186-1.293-5.645.367-1.457 1.66-1.293 4.187.367 5.644 2.192 1.924 5.004 2.985 7.92 2.985zm22-22c2.209 0 4-1.791 4-4s-1.791-4-4-4-4 1.791-4 4 1.791 4 4 4zm-40 0c2.209 0 4-1.791 4-4s-1.791-4-4-4-4 1.791-4 4 1.791 4 4 4zm34 110c0 8.822-7.178 16-16 16s-16-7.178-16-16 7.178-16 16-16 16 7.177 16 16zm-8 0c0-4.412-3.588-8-8-8s-8 3.588-8 8 3.588 8 8 8 8-3.588 8-8zm-112-166c0-7.719 6.281-14 14-14s14 6.281 14 14-6.281 14-14 14-14-6.282-14-14zm8 0c0 3.308 2.692 6 6 6s6-2.692 6-6-2.692-6-6-6-6 2.691-6 6zm186 4.529c2.501 0 4.53-2.028 4.53-4.53s-2.028-4.53-4.53-4.53-4.53 2.028-4.53 4.53 2.028 4.53 4.53 4.53zm-192 48c2.501 0 4.53-2.028 4.53-4.53s-2.028-4.53-4.53-4.53-4.53 2.028-4.53 4.53 2.028 4.53 4.53 4.53zm187.824 9.646c.781.781 1.804 1.172 2.828 1.172 1.023 0 2.047-.391 2.828-1.172l4.52-4.519 4.52 4.519c.781.781 1.805 1.172 2.828 1.172s2.047-.391 2.828-1.172c1.563-1.562 1.563-4.094 0-5.656l-4.519-4.52 4.519-4.52c1.563-1.562 1.563-4.094 0-5.656-1.562-1.563-4.094-1.563-5.656 0l-4.52 4.519-4.52-4.519c-1.562-1.563-4.094-1.563-5.656 0-1.563 1.562-1.563 4.094 0 5.656l4.519 4.52-4.519 4.52c-1.563 1.563-1.563 4.094 0 5.656zm-85.824 15.825c3.387 0 6.631-1.442 8.902-3.953 1.48-1.638 1.352-4.168-.287-5.65-1.64-1.482-4.168-1.35-5.65.287-1.414 1.568-4.012 1.721-5.607.32-1.66-1.453-4.186-1.293-5.645.367-1.457 1.66-1.293 4.187.367 5.645 2.191 1.923 5.004 2.984 7.92 2.984zm22-22c2.209 0 4-1.791 4-4s-1.791-4-4-4-4 1.791-4 4 1.791 4 4 4zm-40 0c2.209 0 4-1.791 4-4s-1.791-4-4-4-4 1.791-4 4 1.791 4 4 4zm2 110c0-8.823 7.177-16 16-16 8.822 0 16 7.177 16 16 0 8.822-7.178 16-16 16-8.823 0-16-7.178-16-16zm8 0c0 4.412 3.588 8 8 8s8-3.588 8-8-3.588-8-8-8-8 3.587-8 8zm-96-166c0-7.719 6.281-14 14-14s14 6.281 14 14-6.281 14-14 14-14-6.282-14-14zm8 0c0 3.308 2.692 6 6 6s6-2.692 6-6-2.692-6-6-6-6 2.691-6 6zm204 214c0 2.209-1.791 4-4 4h-212c-2.209 0-4-1.791-4-4s1.791-4 4-4h31.654l-7.64-91.668c-.092-1.115.285-2.217 1.043-3.041.758-.823 1.824-1.291 2.943-1.291h20v-65.146c-1.195-1.954-1.912-4.123-1.992-6.345-.099-2.821.644-5.503 2.033-7.788-.004-.071-.041-.132-.041-.204v-2.518c0-3.484.838-8.68 2.492-15.443 2.114-8.654 5.604-16.181 10.375-22.373 12.33-15.998 31.713-25.004 51.951-24.121 33.186 1.473 59.182 29.354 59.182 63.475v1.289c1.562 2.615 2.287 5.725 1.892 8.932-.225 1.822-.915 3.576-1.899 5.186 0 .012.007.022.007.034v65.022h16c1.119 0 2.186.469 2.943 1.291.758.824 1.135 1.926 1.043 3.041l-7.638 91.668h27.652c2.209 0 4 1.791 4 4zm-159.74-185.272c3.494-.72 18.475-5.132 17.391-27.722-.102-2.139 1.498-3.979 3.631-4.174 2.209-.193 4.486 1.344 4.725 3.51.645 5.879 8.963 13.67 21.705 20.332 18.408 9.625 45.168 15.949 58.502 8.703.489-.267 1.029-.383 1.57-.43-2.187-27.697-23.92-49.676-51.32-50.892-17.582-.762-34.518 7.076-45.26 21.012-4.084 5.303-7.092 11.826-8.942 19.389-1.011 4.14-1.67 7.576-2.002 10.272zm-2.256 13.496c.061 1.703 1.201 3.508 2.974 4.707 1.947 1.312 3.377 1.238 4.918.715.416-.14.846-.209 1.276-.209.693 0 1.381.18 1.994.533.994.571 1.693 1.541 1.924 2.664 3.738 18.23 17.047 33.095 34.736 38.791 4.633 1.486 9.715 1.426 14.68-.182l1.779-.576c17.377-5.633 30.596-20.242 34.496-38.125.244-1.121.959-2.084 1.961-2.642 1.002-.559 2.198-.658 3.278-.277 1.816.638 3.242.475 4.924-.572 1.684-1.049 2.809-2.645 3.008-4.27.254-2.064-.541-4.045-2.047-5.336-16.955 7.424-44.621.398-63.898-9.682-8.364-4.373-14.965-9.197-19.43-14.084-4.322 18.225-19.74 22.291-23.345 22.998-2.056 1.066-3.312 3.201-3.228 5.547zm109.996 13.1c-1.417.473-2.86.719-4.348.668-4.722 16.421-16.354 30.047-31.652 37.365v3.341l31.881 14.492c1.311.596 2.58 1.256 3.805 1.979.127.075.199.197.314.282zm-45.029 41.531c-3.385 1.096-6.824 1.646-10.217 1.646-3.196 0-6.35-.489-9.379-1.461-1.161-.374-2.249-.887-3.375-1.328v6.287c0 6.617 5.383 12 12 12s12-5.383 12-12v-5.478zm-30.971-4.964c-13.528-7.792-23.668-20.613-27.848-35.89-1.407.043-2.79-.2-4.152-.674v55.922c.041-.019.078-.042.119-.061l31.881-14.491zm95.652 30.109h-151.304l7.334 88h136.638z" fill="url(#SVGID_1_)"/></g></svg>